# MagicaVoxel @ Ephtracy

# group
o 

# material
mtllib Chit.mtl
usemtl palette

# normals
vn -1 0 0
vn 1 0 0
vn 0 0 1
vn 0 0 -1
vn 0 -1 0
vn 0 1 0

# texcoords
vt 0.970703 0.5
vt 0.974609 0.5
vt 0.978516 0.5
vt 0.982422 0.5
vt 0.986328 0.5

# verts
v 0 3 -0.1
v 0 3 -0.3
v 0 3.3 -0.1
v 0 3.3 -0.3
v 0.1 2.6 -0.1
v 0.1 2.6 -0.3
v 0.1 3 -0.1
v 0.1 3 -0.3
v 0.2 2.2 -0.1
v 0.2 2.2 -0.3
v 0.2 2.6 -0.1
v 0.2 2.6 -0.3
v 0.3 2 -0.1
v 0.3 2 -0.3
v 0.3 2.2 -0.1
v 0.3 2.2 -0.3
v 0.4 2.5 -0.3
v 0.4 2.5 -0.4
v 0.4 2.6 -0.3
v 0.4 2.6 -0.4
v 0.4 2.6 -0.5
v 0.4 2.9 -0.3
v 0.4 2.9 -0.4
v 0.4 2.9 -0.5
v 0.4 3 -0.3
v 0.4 3 -0.4
v 0.8 3.2 -0.1
v 0.8 3.2 -0.3
v 0.8 3.3 -0.1
v 0.8 3.3 -0.3
v 0.3 3.2 -0.1
v 0.3 3.2 -0.3
v 0.3 3.3 -0.1
v 0.3 3.3 -0.3
v 0.6 2 -0.1
v 0.6 2 -0.3
v 0.6 2.1 -0.1
v 0.6 2.1 -0.3
v 0.7 2.1 -0.1
v 0.7 2.1 -0.3
v 0.7 2.3 -0.1
v 0.7 2.3 -0.3
v 0.7 2.5 -0.3
v 0.7 2.5 -0.4
v 0.7 2.6 -0.3
v 0.7 2.6 -0.4
v 0.7 2.6 -0.5
v 0.7 2.9 -0.3
v 0.7 2.9 -0.4
v 0.7 2.9 -0.5
v 0.7 3 -0.3
v 0.7 3 -0.4
v 0.8 2.3 -0.1
v 0.8 2.3 -0.3
v 0.8 2.5 -0.1
v 0.8 2.5 -0.3
v 0.9 2.5 -0.1
v 0.9 2.5 -0.3
v 0.9 2.7 -0.1
v 0.9 2.7 -0.3
v 1 2.7 -0.1
v 1 2.7 -0.3
v 1 3 -0.1
v 1 3 -0.3
v 1.1 3 -0.1
v 1.1 3 -0.3
v 1.1 3.3 -0.1
v 1.1 3.3 -0.3
v 0 3 -0.1
v 0 3.3 -0.1
v 0.1 2.6 -0.1
v 0.1 3 -0.1
v 0.1 3.1 -0.1
v 0.1 3.2 -0.1
v 0.2 2.2 -0.1
v 0.2 2.6 -0.1
v 0.2 2.9 -0.1
v 0.2 3 -0.1
v 0.3 2 -0.1
v 0.3 2.2 -0.1
v 0.3 2.6 -0.1
v 0.3 2.7 -0.1
v 0.3 2.9 -0.1
v 0.3 3 -0.1
v 0.3 3.1 -0.1
v 0.3 3.2 -0.1
v 0.3 3.3 -0.1
v 0.4 2.1 -0.1
v 0.4 2.2 -0.1
v 0.4 2.3 -0.1
v 0.4 2.5 -0.1
v 0.4 2.7 -0.1
v 0.4 2.8 -0.1
v 0.5 2.3 -0.1
v 0.5 2.4 -0.1
v 0.5 2.5 -0.1
v 0.5 2.6 -0.1
v 0.5 2.7 -0.1
v 0.5 2.8 -0.1
v 0.5 2.9 -0.1
v 0.5 3 -0.1
v 0.5 3.1 -0.1
v 0.6 2 -0.1
v 0.6 2.1 -0.1
v 0.6 2.3 -0.1
v 0.6 2.5 -0.1
v 0.6 2.6 -0.1
v 0.6 2.7 -0.1
v 0.6 2.8 -0.1
v 0.6 2.9 -0.1
v 0.7 2.1 -0.1
v 0.7 2.3 -0.1
v 0.7 2.4 -0.1
v 0.7 2.5 -0.1
v 0.7 2.7 -0.1
v 0.7 2.8 -0.1
v 0.7 2.9 -0.1
v 0.7 3 -0.1
v 0.8 2.3 -0.1
v 0.8 2.5 -0.1
v 0.8 2.7 -0.1
v 0.8 2.9 -0.1
v 0.8 3 -0.1
v 0.8 3.1 -0.1
v 0.8 3.2 -0.1
v 0.8 3.3 -0.1
v 0.9 2.5 -0.1
v 0.9 2.7 -0.1
v 0.9 2.9 -0.1
v 0.9 3 -0.1
v 1 2.7 -0.1
v 1 3 -0.1
v 1 3.2 -0.1
v 1.1 3 -0.1
v 1.1 3.3 -0.1
v 0.4 2.6 -0.4
v 0.4 2.9 -0.4
v 0.7 2.6 -0.4
v 0.7 2.9 -0.4
v 0 3 -0.3
v 0 3.3 -0.3
v 0.1 2.6 -0.3
v 0.1 3 -0.3
v 0.2 2.2 -0.3
v 0.2 2.6 -0.3
v 0.3 2 -0.3
v 0.3 2.2 -0.3
v 0.3 3.2 -0.3
v 0.3 3.3 -0.3
v 0.4 2.5 -0.3
v 0.4 2.6 -0.3
v 0.4 2.9 -0.3
v 0.4 3 -0.3
v 0.6 2 -0.3
v 0.6 2.1 -0.3
v 0.7 2.1 -0.3
v 0.7 2.3 -0.3
v 0.7 2.5 -0.3
v 0.7 2.6 -0.3
v 0.7 2.9 -0.3
v 0.7 3 -0.3
v 0.8 2.3 -0.3
v 0.8 2.5 -0.3
v 0.8 3.2 -0.3
v 0.8 3.3 -0.3
v 0.9 2.5 -0.3
v 0.9 2.7 -0.3
v 1 2.7 -0.3
v 1 3 -0.3
v 1.1 3 -0.3
v 1.1 3.3 -0.3
v 0.4 2.5 -0.4
v 0.4 2.6 -0.4
v 0.4 2.9 -0.4
v 0.4 3 -0.4
v 0.7 2.5 -0.4
v 0.7 2.6 -0.4
v 0.7 2.9 -0.4
v 0.7 3 -0.4
v 0.4 2.6 -0.5
v 0.4 2.9 -0.5
v 0.7 2.6 -0.5
v 0.7 2.9 -0.5
v 0.3 2 -0.1
v 0.6 2 -0.1
v 0.3 2 -0.3
v 0.6 2 -0.3
v 0.6 2.1 -0.1
v 0.7 2.1 -0.1
v 0.6 2.1 -0.3
v 0.7 2.1 -0.3
v 0.2 2.2 -0.1
v 0.3 2.2 -0.1
v 0.2 2.2 -0.3
v 0.3 2.2 -0.3
v 0.7 2.3 -0.1
v 0.8 2.3 -0.1
v 0.7 2.3 -0.3
v 0.8 2.3 -0.3
v 0.8 2.5 -0.1
v 0.9 2.5 -0.1
v 0.4 2.5 -0.3
v 0.7 2.5 -0.3
v 0.8 2.5 -0.3
v 0.9 2.5 -0.3
v 0.4 2.5 -0.4
v 0.7 2.5 -0.4
v 0.1 2.6 -0.1
v 0.2 2.6 -0.1
v 0.1 2.6 -0.3
v 0.2 2.6 -0.3
v 0.4 2.6 -0.4
v 0.7 2.6 -0.4
v 0.4 2.6 -0.5
v 0.7 2.6 -0.5
v 0.9 2.7 -0.1
v 1 2.7 -0.1
v 0.9 2.7 -0.3
v 1 2.7 -0.3
v 0.4 2.9 -0.3
v 0.7 2.9 -0.3
v 0.4 2.9 -0.4
v 0.7 2.9 -0.4
v 0 3 -0.1
v 0.1 3 -0.1
v 1 3 -0.1
v 1.1 3 -0.1
v 0 3 -0.3
v 0.1 3 -0.3
v 1 3 -0.3
v 1.1 3 -0.3
v 0.4 2.6 -0.3
v 0.7 2.6 -0.3
v 0.4 2.6 -0.4
v 0.7 2.6 -0.4
v 0.4 2.9 -0.4
v 0.7 2.9 -0.4
v 0.4 2.9 -0.5
v 0.7 2.9 -0.5
v 0.4 3 -0.3
v 0.7 3 -0.3
v 0.4 3 -0.4
v 0.7 3 -0.4
v 0.3 3.2 -0.1
v 0.8 3.2 -0.1
v 0.3 3.2 -0.3
v 0.8 3.2 -0.3
v 0 3.3 -0.1
v 0.3 3.3 -0.1
v 0.8 3.3 -0.1
v 1.1 3.3 -0.1
v 0 3.3 -0.3
v 0.3 3.3 -0.3
v 0.8 3.3 -0.3
v 1.1 3.3 -0.3

# faces
f 3/1/1 2/1/1 1/1/1
f 4/1/1 2/1/1 3/1/1
f 7/1/1 6/1/1 5/1/1
f 8/1/1 6/1/1 7/1/1
f 11/1/1 10/1/1 9/1/1
f 12/1/1 10/1/1 11/1/1
f 15/1/1 14/1/1 13/1/1
f 16/1/1 14/1/1 15/1/1
f 19/5/1 18/5/1 17/5/1
f 20/5/1 18/5/1 19/5/1
f 23/5/1 21/5/1 20/5/1
f 24/5/1 21/5/1 23/5/1
f 25/5/1 23/5/1 22/5/1
f 26/5/1 23/5/1 25/5/1
f 29/1/1 28/1/1 27/1/1
f 30/1/1 28/1/1 29/1/1
f 31/1/2 32/1/2 33/1/2
f 33/1/2 32/1/2 34/1/2
f 35/1/2 36/1/2 37/1/2
f 37/1/2 36/1/2 38/1/2
f 39/1/2 40/1/2 41/1/2
f 41/1/2 40/1/2 42/1/2
f 43/5/2 44/5/2 45/5/2
f 45/5/2 44/5/2 46/5/2
f 46/5/2 47/5/2 49/5/2
f 49/5/2 47/5/2 50/5/2
f 48/5/2 49/5/2 51/5/2
f 51/5/2 49/5/2 52/5/2
f 53/1/2 54/1/2 55/1/2
f 55/1/2 54/1/2 56/1/2
f 57/1/2 58/1/2 59/1/2
f 59/1/2 58/1/2 60/1/2
f 61/1/2 62/1/2 63/1/2
f 63/1/2 62/1/2 64/1/2
f 65/1/2 66/1/2 67/1/2
f 67/1/2 66/1/2 68/1/2
f 72/1/3 70/1/3 69/1/3
f 73/1/3 70/1/3 72/1/3
f 74/1/3 70/1/3 73/1/3
f 76/1/3 72/1/3 71/1/3
f 77/1/3 72/1/3 76/1/3
f 78/3/3 73/3/3 72/3/3
f 78/1/3 72/1/3 77/1/3
f 80/1/3 76/1/3 75/1/3
f 81/2/3 77/2/3 76/2/3
f 81/1/3 76/1/3 80/1/3
f 82/2/3 77/2/3 81/2/3
f 83/3/3 78/3/3 77/3/3
f 83/2/3 77/2/3 82/2/3
f 84/3/3 73/3/3 78/3/3
f 84/3/3 78/3/3 83/3/3
f 85/4/3 74/4/3 73/4/3
f 85/3/3 73/3/3 84/3/3
f 86/1/3 70/1/3 74/1/3
f 86/4/3 74/4/3 85/4/3
f 87/1/3 70/1/3 86/1/3
f 88/1/3 80/1/3 79/1/3
f 89/2/3 82/2/3 81/2/3
f 89/1/3 80/1/3 88/1/3
f 89/2/3 81/2/3 80/2/3
f 90/2/3 82/2/3 89/2/3
f 91/2/3 82/2/3 90/2/3
f 92/3/3 83/3/3 82/3/3
f 92/2/3 82/2/3 91/2/3
f 93/3/3 83/3/3 92/3/3
f 94/3/3 91/3/3 90/3/3
f 94/2/3 89/2/3 88/2/3
f 94/2/3 90/2/3 89/2/3
f 95/3/3 91/3/3 94/3/3
f 96/1/3 93/1/3 92/1/3
f 96/3/3 91/3/3 95/3/3
f 96/1/3 92/1/3 91/1/3
f 97/1/3 93/1/3 96/1/3
f 98/1/3 93/1/3 97/1/3
f 99/3/3 83/3/3 93/3/3
f 99/1/3 93/1/3 98/1/3
f 100/2/3 84/2/3 83/2/3
f 100/3/3 83/3/3 99/3/3
f 101/3/3 85/3/3 84/3/3
f 101/2/3 84/2/3 100/2/3
f 102/1/3 86/1/3 85/1/3
f 102/3/3 85/3/3 101/3/3
f 103/1/3 88/1/3 79/1/3
f 104/2/3 95/2/3 94/2/3
f 104/1/3 88/1/3 103/1/3
f 104/2/3 94/2/3 88/2/3
f 105/2/3 95/2/3 104/2/3
f 106/3/3 96/3/3 95/3/3
f 106/3/3 97/3/3 96/3/3
f 107/1/3 98/1/3 97/1/3
f 107/3/3 97/3/3 106/3/3
f 108/3/3 99/3/3 98/3/3
f 108/1/3 98/1/3 107/1/3
f 109/1/3 100/1/3 99/1/3
f 109/3/3 99/3/3 108/3/3
f 110/2/3 101/2/3 100/2/3
f 110/1/3 100/1/3 109/1/3
f 111/1/3 105/1/3 104/1/3
f 112/2/3 95/2/3 105/2/3
f 112/1/3 105/1/3 111/1/3
f 113/3/3 106/3/3 95/3/3
f 113/2/3 95/2/3 112/2/3
f 114/1/3 108/1/3 107/1/3
f 114/3/3 106/3/3 113/3/3
f 114/1/3 107/1/3 106/1/3
f 114/1/3 109/1/3 108/1/3
f 115/1/3 109/1/3 114/1/3
f 116/3/3 110/3/3 109/3/3
f 116/1/3 109/1/3 115/1/3
f 117/2/3 101/2/3 110/2/3
f 117/3/3 110/3/3 116/3/3
f 118/4/3 102/4/3 101/4/3
f 118/2/3 101/2/3 117/2/3
f 119/1/3 113/1/3 112/1/3
f 119/1/3 114/1/3 113/1/3
f 120/3/3 115/3/3 114/3/3
f 120/1/3 114/1/3 119/1/3
f 121/2/3 116/2/3 115/2/3
f 121/3/3 115/3/3 120/3/3
f 121/2/3 117/2/3 116/2/3
f 122/3/3 118/3/3 117/3/3
f 122/2/3 117/2/3 121/2/3
f 123/4/3 102/4/3 118/4/3
f 123/3/3 118/3/3 122/3/3
f 124/1/3 86/1/3 102/1/3
f 124/4/3 102/4/3 123/4/3
f 125/1/3 86/1/3 124/1/3
f 127/1/3 121/1/3 120/1/3
f 128/3/3 122/3/3 121/3/3
f 128/1/3 121/1/3 127/1/3
f 129/4/3 123/4/3 122/4/3
f 129/3/3 122/3/3 128/3/3
f 129/4/3 125/4/3 124/4/3
f 129/4/3 124/4/3 123/4/3
f 130/4/3 125/4/3 129/4/3
f 131/1/3 129/1/3 128/1/3
f 131/1/3 130/1/3 129/1/3
f 132/4/3 125/4/3 130/4/3
f 132/1/3 130/1/3 131/1/3
f 133/1/3 126/1/3 125/1/3
f 133/4/3 125/4/3 132/4/3
f 134/1/3 133/1/3 132/1/3
f 135/1/3 126/1/3 133/1/3
f 135/1/3 133/1/3 134/1/3
f 138/5/3 137/5/3 136/5/3
f 139/5/3 137/5/3 138/5/3
f 140/1/4 141/1/4 143/1/4
f 142/1/4 143/1/4 145/1/4
f 144/1/4 145/1/4 147/1/4
f 143/1/4 141/1/4 148/1/4
f 145/1/4 143/1/4 148/1/4
f 147/1/4 145/1/4 148/1/4
f 148/1/4 141/1/4 149/1/4
f 146/1/4 147/1/4 150/1/4
f 147/1/4 148/1/4 150/1/4
f 150/1/4 148/1/4 151/1/4
f 151/1/4 148/1/4 152/1/4
f 152/1/4 148/1/4 153/1/4
f 146/1/4 150/1/4 154/1/4
f 154/1/4 150/1/4 155/1/4
f 155/1/4 150/1/4 156/1/4
f 156/1/4 150/1/4 157/1/4
f 157/1/4 150/1/4 158/1/4
f 151/1/4 152/1/4 159/1/4
f 159/1/4 152/1/4 160/1/4
f 153/1/4 148/1/4 161/1/4
f 159/1/4 160/1/4 162/1/4
f 160/1/4 161/1/4 162/1/4
f 157/1/4 158/1/4 162/1/4
f 158/1/4 159/1/4 162/1/4
f 162/1/4 161/1/4 163/1/4
f 161/1/4 148/1/4 164/1/4
f 163/1/4 161/1/4 164/1/4
f 164/1/4 165/1/4 166/1/4
f 163/1/4 164/1/4 166/1/4
f 166/1/4 165/1/4 167/1/4
f 167/1/4 165/1/4 168/1/4
f 168/1/4 165/1/4 169/1/4
f 169/1/4 165/1/4 170/1/4
f 170/1/4 165/1/4 171/1/4
f 172/5/4 173/5/4 176/5/4
f 176/5/4 173/5/4 177/5/4
f 174/5/4 175/5/4 178/5/4
f 178/5/4 175/5/4 179/5/4
f 180/5/4 181/5/4 182/5/4
f 182/5/4 181/5/4 183/5/4
f 186/1/5 185/1/5 184/1/5
f 187/1/5 185/1/5 186/1/5
f 190/1/5 189/1/5 188/1/5
f 191/1/5 189/1/5 190/1/5
f 194/1/5 193/1/5 192/1/5
f 195/1/5 193/1/5 194/1/5
f 198/1/5 197/1/5 196/1/5
f 199/1/5 197/1/5 198/1/5
f 204/1/5 201/1/5 200/1/5
f 205/1/5 201/1/5 204/1/5
f 206/5/5 203/5/5 202/5/5
f 207/5/5 203/5/5 206/5/5
f 210/1/5 209/1/5 208/1/5
f 211/1/5 209/1/5 210/1/5
f 214/5/5 213/5/5 212/5/5
f 215/5/5 213/5/5 214/5/5
f 218/1/5 217/1/5 216/1/5
f 219/1/5 217/1/5 218/1/5
f 222/5/5 221/5/5 220/5/5
f 223/5/5 221/5/5 222/5/5
f 228/1/5 225/1/5 224/1/5
f 229/1/5 225/1/5 228/1/5
f 230/1/5 227/1/5 226/1/5
f 231/1/5 227/1/5 230/1/5
f 232/5/6 233/5/6 234/5/6
f 234/5/6 233/5/6 235/5/6
f 236/5/6 237/5/6 238/5/6
f 238/5/6 237/5/6 239/5/6
f 240/5/6 241/5/6 242/5/6
f 242/5/6 241/5/6 243/5/6
f 244/1/6 245/1/6 246/1/6
f 246/1/6 245/1/6 247/1/6
f 248/1/6 249/1/6 252/1/6
f 252/1/6 249/1/6 253/1/6
f 250/1/6 251/1/6 254/1/6
f 254/1/6 251/1/6 255/1/6
